<?xml version="1.0" encoding="UTF-8"?>
<svg id="Layer_2" data-name="Layer 2" xmlns="http://www.w3.org/2000/svg" viewBox="0 0 454.43 84.84">
  <defs>
    <style>
      .cls-1 {
        fill: #1C1C1E;
      }
    </style>
  </defs>
  <g id="Layer_1-2" data-name="Layer 1">
    <g>
      <path class="cls-1" d="M34.44,49.98v-1.26c0-13.72-1.68-19.04-6.3-19.04-4.2,0-5.88,4.06-5.88,8.54,0,7.14-3.92,10.78-9.24,10.78-6.72,0-9.94-5.32-8.4-11.06,2.1-7.7,12.74-13.02,23.24-13.02,16.94,0,27.72,7.7,27.72,23.66v26.32c0,3.92.14,5.18,2.52,5.6,1.68.42,2.24.84,2.24,1.4,0,.84-.7,1.4-1.82,1.68-1.12.42-4.34.56-5.74.56-7.84,0-15.96-3.36-18.34-11.76-2.66,7.42-8.82,12.46-16.8,12.46-11.9,0-17.64-7.28-17.64-15.26,0-11.34,14.28-19.46,34.44-19.6ZM34.44,53.2c-8.54.42-13.16,5.46-13.16,12.32,0,4.06,2.66,7.98,6.44,7.98s6.58-5.6,6.58-9.52v-6.58c0-.28,0-.42.14-.56v-3.64Z"/>
      <path class="cls-1" d="M88.34,77.7c0,1.96.84,2.52,2.8,3.22,1.26.28,1.82.98,1.82,1.68s-.7,1.26-1.68,1.26c-1.82,0-6.72-.28-13.58-.28s-11.62.28-13.44.28c-1.12,0-1.82-.56-1.82-1.26s.56-1.4,1.82-1.68c2.1-.7,2.8-1.26,2.8-3.22v-38.36c0-1.82-1.54-2.8-2.8-3.22-1.26-.28-1.82-.98-1.82-1.68s.7-1.26,1.82-1.4c2.8-.42,7.84-1.4,13.3-3.36,5.88-1.96,7.28-3.36,9.24-3.36,1.54,0,1.54,1.4,1.54,3.22v48.16ZM77.14,23.52c-6.86,0-13.16-4.9-13.16-11.76S70.28,0,77.14,0s13.3,4.9,13.3,11.76-6.3,11.76-13.3,11.76Z"/>
      <path class="cls-1" d="M121.24,84.84c-13.58,0-23.66-3.78-26.18-11.9-2.1-6.3,1.54-12.18,9.24-12.18,5.46,0,8.54,3.64,9.38,10.64.7,7.28,4.34,8.68,8.4,8.68s7.28-2.66,7.28-7c0-3.64-2.8-7.56-13.02-11.9-11.62-5.04-18.62-9.38-18.62-18.9,0-10.64,11.76-17.36,25.62-17.36,12.04,0,20.86,4.48,22.54,10.64,1.54,6.02-1.82,10.08-9.24,10.08-5.04,0-8.4-2.52-8.82-8.68-.42-4.62-2.52-7.28-6.44-7.28-4.2,0-6.72,2.52-6.72,5.74,0,5.04,3.64,6.86,13.16,10.92,16.24,7.14,20.3,13.16,20.3,21.14,0,9.1-8.4,17.36-26.88,17.36Z"/>
      <path class="cls-1" d="M177.8,84.84c-13.58,0-23.66-3.78-26.18-11.9-2.1-6.3,1.54-12.18,9.24-12.18,5.46,0,8.54,3.64,9.38,10.64.7,7.28,4.34,8.68,8.4,8.68s7.28-2.66,7.28-7c0-3.64-2.8-7.56-13.02-11.9-11.62-5.04-18.62-9.38-18.62-18.9,0-10.64,11.76-17.36,25.62-17.36,12.04,0,20.86,4.48,22.54,10.64,1.54,6.02-1.82,10.08-9.24,10.08-5.04,0-8.4-2.52-8.82-8.68-.42-4.62-2.52-7.28-6.44-7.28-4.2,0-6.72,2.52-6.72,5.74,0,5.04,3.64,6.86,13.16,10.92,16.24,7.14,20.3,13.16,20.3,21.14,0,9.1-8.4,17.36-26.88,17.36Z"/>
      <path class="cls-1" d="M233.38,77.7c0,1.96.84,2.52,2.8,3.22,1.26.28,1.82.98,1.82,1.68s-.7,1.26-1.68,1.26c-1.82,0-6.72-.28-13.58-.28s-11.62.28-13.44.28c-1.12,0-1.82-.56-1.82-1.26s.56-1.4,1.82-1.68c2.1-.7,2.8-1.26,2.8-3.22v-38.36c0-1.82-1.54-2.8-2.8-3.22-1.26-.28-1.82-.98-1.82-1.68s.7-1.26,1.82-1.4c2.8-.42,7.84-1.4,13.3-3.36,5.88-1.96,7.28-3.36,9.24-3.36,1.54,0,1.54,1.4,1.54,3.22v48.16ZM222.18,23.52c-6.86,0-13.16-4.9-13.16-11.76s6.3-11.76,13.16-11.76,13.3,4.9,13.3,11.76-6.3,11.76-13.3,11.76Z"/>
      <path class="cls-1" d="M266.28,84.84c-13.58,0-23.66-3.78-26.18-11.9-2.1-6.3,1.54-12.18,9.24-12.18,5.46,0,8.54,3.64,9.38,10.64.7,7.28,4.34,8.68,8.4,8.68s7.28-2.66,7.28-7c0-3.64-2.8-7.56-13.02-11.9-11.62-5.04-18.62-9.38-18.62-18.9,0-10.64,11.76-17.36,25.62-17.36,12.04,0,20.86,4.48,22.54,10.64,1.54,6.02-1.82,10.08-9.24,10.08-5.04,0-8.4-2.52-8.82-8.68-.42-4.62-2.52-7.28-6.44-7.28-4.2,0-6.72,2.52-6.72,5.74,0,5.04,3.64,6.86,13.16,10.92,16.24,7.14,20.3,13.16,20.3,21.14,0,9.1-8.4,17.36-26.88,17.36Z"/>
      <path class="cls-1" d="M320.45,26.32h8.4c1.4,0,1.82.56,1.82,1.4v1.96c0,.84-.56,1.4-1.82,1.4h-8.54v34.58c0,4.76,1.96,6.86,4.9,6.86,1.82,0,3.36-.14,4.76-.56,1.12-.28,2.38.84,1.26,2.38-3.92,4.9-8.26,9.24-16.38,9.24-11.62,0-15.82-8.68-15.82-16.8V29.54c-7.7-3.36-18.48-10.78-29.26-10.78-6.58,0-9.52,2.38-11.34,2.38-1.96,0-4.48-2.66-4.48-7.14,0-5.74,5.32-11.62,14-11.62,7.42,0,14.84,6.86,20.86,13.3,4.76,5.32,9.66,9.52,13.16,9.52,3.22,0,5.46-2.1,8.68-6.02,4.06-4.9,5.18-9.66,7.28-9.66h.56c1.4,0,1.96,1.26,1.96,3.22v13.58Z"/>
      <path class="cls-1" d="M388.21,51.52c0,.84-.56,1.4-1.82,1.4h-31.5c1.96,12.88,10.64,20.58,18.06,20.58,5.46,0,8.68-1.4,11.76-3.22.98-.56,2.66.56,1.82,2.38-1.82,3.5-11.62,12.18-24.5,12.18-17.92,0-28.84-13.86-28.84-29.4,0-18.2,12.88-30.52,30.66-30.52,15.4,0,24.36,10.5,24.36,26.6ZM354.47,48.16h9.94c1.12,0,2.94-.14,2.94-6.02,0-7.28-1.54-12.46-5.32-12.46s-7.56,7.84-7.56,17.64v.84Z"/>
      <path class="cls-1" d="M425.73,19.46c-1.26-.42-1.68-.98-1.68-1.82,0-.7.56-1.26,1.68-1.4,3.36-.42,8.26-1.4,13.44-3.5,5.88-2.52,7.56-4.62,9.1-4.62s1.54,1.4,1.54,3.22v66.36c0,1.96.84,2.38,2.8,2.94,1.4.42,1.82,1.12,1.82,1.82s-.56,1.26-1.68,1.26c-1.82,0-5.04-.28-13.58-.14-7.56.14-10.64,1.4-10.64-1.4v-5.88c-2.66,4.34-7.42,8.54-13.58,8.54-11.62,0-21.98-11.06-21.98-30.38s10.36-29.54,21.98-29.54c6.16,0,10.92,4.48,13.58,9.66v-12.04c0-1.82-1.54-2.8-2.8-3.08ZM414.25,54.18c0,14.42,3.78,20.58,7.7,20.58,3.5,0,6.3-5.46,6.58-18.48v-2.1c0-14.28-2.66-19.32-6.58-19.32s-7.7,5.04-7.7,19.32Z"/>
    </g>
  </g>
</svg>